<mxfile host="app.diagrams.net" modified="2023-07-09T15:01:39.926Z" agent="Mozilla/5.0 (X11; Linux x86_64; rv:109.0) Gecko/20100101 Firefox/114.0" etag="5Xk3NQ3mPMyU7QbtlUzy" version="21.6.1" type="github">
  <diagram name="Page-1" id="JHkbPfwTl-mQXffRI8U6">
    <mxGraphModel dx="1352" dy="897" grid="1" gridSize="10" guides="1" tooltips="1" connect="1" arrows="1" fold="1" page="1" pageScale="1" pageWidth="850" pageHeight="1100" math="0" shadow="0">
      <root>
        <mxCell id="0" />
        <mxCell id="1" parent="0" />
        <mxCell id="9W7WmNHOW8XKUqppt2up-1" value="" style="strokeWidth=1;shadow=0;dashed=0;align=center;html=1;shape=mxgraph.mockup.containers.browserWindow;rSize=0;strokeColor=#666666;strokeColor2=#008cff;strokeColor3=#c4c4c4;mainText=,;recursiveResize=0;" vertex="1" parent="1">
          <mxGeometry x="150" y="40" width="550" height="560" as="geometry" />
        </mxCell>
        <mxCell id="9W7WmNHOW8XKUqppt2up-2" value="&lt;div&gt;Pass-Gen&lt;/div&gt;" style="strokeWidth=1;shadow=0;dashed=0;align=center;html=1;shape=mxgraph.mockup.containers.anchor;fontSize=17;fontColor=#666666;align=left;whiteSpace=wrap;" vertex="1" parent="9W7WmNHOW8XKUqppt2up-1">
          <mxGeometry x="60" y="12" width="110" height="26" as="geometry" />
        </mxCell>
        <mxCell id="9W7WmNHOW8XKUqppt2up-3" value="https://www.draw.io" style="strokeWidth=1;shadow=0;dashed=0;align=center;html=1;shape=mxgraph.mockup.containers.anchor;rSize=0;fontSize=17;fontColor=#666666;align=left;" vertex="1" parent="9W7WmNHOW8XKUqppt2up-1">
          <mxGeometry x="130" y="60" width="250" height="26" as="geometry" />
        </mxCell>
        <mxCell id="9W7WmNHOW8XKUqppt2up-4" value="Password Generator" style="text;strokeColor=none;fillColor=none;html=1;fontSize=24;fontStyle=1;verticalAlign=middle;align=center;" vertex="1" parent="9W7WmNHOW8XKUqppt2up-1">
          <mxGeometry x="225" y="160" width="100" height="40" as="geometry" />
        </mxCell>
        <mxCell id="9W7WmNHOW8XKUqppt2up-13" value="Generate" style="strokeWidth=1;shadow=0;dashed=0;align=center;html=1;shape=mxgraph.mockup.buttons.button;strokeColor=#666666;fontColor=#ffffff;mainText=;buttonStyle=round;fontSize=17;fontStyle=1;fillColor=#008cff;whiteSpace=wrap;" vertex="1" parent="9W7WmNHOW8XKUqppt2up-1">
          <mxGeometry x="200" y="380" width="150" height="50" as="geometry" />
        </mxCell>
        <mxCell id="9W7WmNHOW8XKUqppt2up-14" value="" style="group" vertex="1" connectable="0" parent="9W7WmNHOW8XKUqppt2up-1">
          <mxGeometry x="200" y="220" width="140" height="125" as="geometry" />
        </mxCell>
        <mxCell id="9W7WmNHOW8XKUqppt2up-8" value="" style="group" vertex="1" connectable="0" parent="9W7WmNHOW8XKUqppt2up-14">
          <mxGeometry width="140" height="25" as="geometry" />
        </mxCell>
        <UserObject label="&lt;div style=&quot;font-size: 14px;&quot;&gt;&lt;font style=&quot;font-size: 12px;&quot;&gt;Length&lt;/font&gt;&lt;/div&gt;" placeholders="1" name="Variable" id="9W7WmNHOW8XKUqppt2up-5">
          <mxCell style="text;html=1;strokeColor=none;fillColor=none;align=center;verticalAlign=middle;whiteSpace=wrap;overflow=hidden;" vertex="1" parent="9W7WmNHOW8XKUqppt2up-8">
            <mxGeometry y="5" width="80" height="20" as="geometry" />
          </mxCell>
        </UserObject>
        <mxCell id="9W7WmNHOW8XKUqppt2up-7" value="" style="rounded=0;whiteSpace=wrap;html=1;" vertex="1" parent="9W7WmNHOW8XKUqppt2up-8">
          <mxGeometry x="90" width="50" height="25" as="geometry" />
        </mxCell>
        <mxCell id="9W7WmNHOW8XKUqppt2up-12" value="" style="group" vertex="1" connectable="0" parent="9W7WmNHOW8XKUqppt2up-14">
          <mxGeometry x="20" y="50" width="15" height="75" as="geometry" />
        </mxCell>
        <mxCell id="9W7WmNHOW8XKUqppt2up-9" value="Use Letters" style="strokeWidth=1;shadow=0;dashed=0;align=center;html=1;shape=mxgraph.mockup.forms.rrect;rSize=0;fillColor=#eeeeee;strokeColor=#999999;gradientColor=#cccccc;align=left;spacingLeft=4;fontSize=17;fontColor=#666666;labelPosition=right;" vertex="1" parent="9W7WmNHOW8XKUqppt2up-12">
          <mxGeometry width="15" height="15" as="geometry" />
        </mxCell>
        <mxCell id="9W7WmNHOW8XKUqppt2up-10" value="Use Numbers" style="strokeWidth=1;shadow=0;dashed=0;align=center;html=1;shape=mxgraph.mockup.forms.rrect;rSize=0;fillColor=#eeeeee;strokeColor=#999999;gradientColor=#cccccc;align=left;spacingLeft=4;fontSize=17;fontColor=#666666;labelPosition=right;" vertex="1" parent="9W7WmNHOW8XKUqppt2up-12">
          <mxGeometry y="30" width="15" height="15" as="geometry" />
        </mxCell>
        <mxCell id="9W7WmNHOW8XKUqppt2up-11" value="Use Symbols" style="strokeWidth=1;shadow=0;dashed=0;align=center;html=1;shape=mxgraph.mockup.forms.rrect;rSize=0;fillColor=#eeeeee;strokeColor=#999999;gradientColor=#cccccc;align=left;spacingLeft=4;fontSize=17;fontColor=#666666;labelPosition=right;" vertex="1" parent="9W7WmNHOW8XKUqppt2up-12">
          <mxGeometry y="60" width="15" height="15" as="geometry" />
        </mxCell>
      </root>
    </mxGraphModel>
  </diagram>
</mxfile>
